# xmcd
#
# Track frame offsets: 
#        150
#        22799
#        40005
#        65434
#        76200
#        106229
#        124415
#        143469
#        162278
#        186567
#        223003
#        244116
#
# Disc length: 3435 seconds
#
# Revision: 5
# Processed by: cddbd v1.5.2PL0 Copyright (c) Steve Scherf et al.
# Submitted via: ExactAudioCopy v0.99pb4
#
DISCID=9d0d690c
DTITLE=Tinsley Ellis - Hell or High Water
DYEAR=2002
DGENRE=Blues
TTITLE0=Hell or High Water
TTITLE1=Hooked
TTITLE2=Mystery to Me
TTITLE3=Love Comes Knockin'
TTITLE4=Stuck in Love
TTITLE5=Real Bad Way
TTITLE6=All Rumors Are True
TTITLE7=All I Can Do
TTITLE8=Love Me by Phone
TTITLE9=Feelin' No Pain
TTITLE10=Ten Year Day
TTITLE11=Set Love Free
EXTD=
EXTT0=
EXTT1=
EXTT2=
EXTT3=
EXTT4=
EXTT5=
EXTT6=
EXTT7=
EXTT8=
EXTT9=
EXTT10=
EXTT11=
PLAYORDER=
